<?xml version="1.0" standalone="no"?>
<!DOCTYPE svg PUBLIC "-//W3C//DTD SVG 20010904//EN"
 "http://www.w3.org/TR/2001/REC-SVG-20010904/DTD/svg10.dtd">
<svg version="1.0" xmlns="http://www.w3.org/2000/svg"
 width="1588.000000pt" height="647.000000pt" viewBox="0 0 1588.000000 647.000000"
 preserveAspectRatio="xMidYMid meet">

<g transform="translate(0.000000,647.000000) scale(0.100000,-0.100000)"
fill="#000000" stroke="none">
<path d="M2470 6458 c0 -16 97 -113 143 -142 15 -10 27 -21 27 -25 0 -3 -48
-35 -107 -71 -125 -76 -141 -68 154 -72 196 -3 217 2 136 31 -42 16 -103 52
-103 63 0 3 17 17 38 29 41 26 132 107 132 119 0 4 -42 10 -92 12 -63 4 -118
14 -170 32 -105 35 -158 43 -158 24z"/>
<path d="M1250 6025 c-20 -24 29 -87 115 -147 41 -29 75 -55 75 -58 -1 -3 -52
-34 -114 -68 -63 -35 -129 -77 -147 -93 l-34 -30 55 7 c80 11 406 6 468 -7 30
-6 57 -8 60 -4 11 11 -46 52 -130 94 l-77 39 57 38 c57 37 172 141 172 154 0
4 -50 10 -111 14 -94 6 -254 38 -357 70 -11 4 -24 0 -32 -9z"/>
<path d="M3055 5669 c-4 -5 5 -28 19 -49 27 -42 153 -155 192 -172 13 -6 24
-16 24 -22 0 -6 -55 -40 -122 -75 -144 -75 -208 -117 -208 -135 0 -10 11 -11
53 -4 72 13 446 11 535 -3 40 -7 76 -9 80 -5 15 15 -119 101 -210 135 -35 13
-35 24 -1 40 52 24 233 182 233 203 0 4 -28 8 -62 8 -104 0 -235 20 -366 56
-133 37 -157 40 -167 23z"/>
<path d="M12880 5010 c-47 -5 -110 -13 -140 -19 -30 -6 -107 -20 -170 -31
-248 -45 -453 -106 -940 -280 -80 -28 -208 -73 -285 -99 -341 -117 -580 -226
-726 -330 -98 -70 -240 -213 -316 -320 -74 -102 -191 -346 -262 -546 -156
-443 -253 -623 -435 -813 -186 -195 -468 -371 -677 -424 -137 -34 -233 -11
-298 71 -62 78 -85 156 -122 416 -26 185 -41 242 -105 401 -96 240 -225 479
-423 784 -199 308 -398 538 -606 701 -55 44 -104 83 -110 87 -42 33 -230 143
-320 187 -165 81 -415 159 -605 189 -320 51 -718 22 -995 -71 -95 -33 -168
-67 -429 -202 -45 -23 -52 -24 -104 -13 -33 7 -71 24 -91 40 -52 42 -93 52
-195 51 -50 -1 -77 -4 -61 -6 147 -18 225 -86 225 -195 0 -73 -42 -124 -213
-257 -396 -308 -626 -398 -1267 -496 -363 -55 -460 -74 -670 -130 -750 -200
-1184 -504 -1584 -1114 -180 -274 -263 -541 -272 -875 -2 -88 -5 -160 -7 -162
-1 -1 -36 5 -77 13 -115 22 -183 14 -276 -31 -113 -56 -198 -145 -258 -268
-117 -241 -76 -450 119 -616 80 -69 145 -100 250 -119 142 -26 258 0 402 90
78 48 121 98 168 193 32 67 38 73 53 62 10 -7 61 -47 113 -90 183 -146 373
-261 518 -313 196 -71 412 -118 666 -147 145 -16 556 -16 825 0 118 7 409 21
645 32 237 11 560 27 719 37 250 15 322 15 540 5 633 -30 841 -48 926 -77 45
-15 122 -70 222 -157 75 -65 161 -115 243 -141 93 -29 289 -31 379 -3 57 17
227 94 496 224 69 33 161 73 205 89 80 28 80 28 335 28 268 -1 429 -15 660
-58 98 -18 150 -21 355 -20 503 2 996 9 1140 17 131 7 172 6 320 -14 144 -19
197 -22 347 -17 119 4 232 1 340 -9 185 -16 199 -15 513 32 363 55 386 64 617
225 l126 89 69 -39 c192 -111 480 -183 733 -183 243 0 477 96 678 277 101 92
106 105 112 340 3 110 9 206 13 213 26 40 77 -8 172 -164 103 -167 343 -388
502 -461 104 -48 334 -79 505 -69 200 12 357 47 486 108 118 56 142 92 214
318 81 256 81 253 82 415 1 169 -10 224 -69 352 -27 58 -52 92 -109 148 -83
82 -130 108 -331 180 -159 58 -233 95 -285 141 -38 34 -40 40 -40 93 0 31 7
105 14 164 23 168 15 195 -103 375 -243 369 -381 538 -651 799 -203 196 -233
219 -285 224 -65 5 -77 -2 -171 -91 -51 -49 -101 -91 -109 -91 -8 -1 -19 -2
-25 -3 -5 -1 -26 27 -47 61 -52 85 -295 331 -423 428 -58 44 -106 87 -108 96
-2 14 17 17 135 22 328 15 589 51 853 117 225 55 336 95 417 150 91 60 115
121 72 181 -41 58 -213 139 -391 184 -95 24 -406 78 -518 90 -30 4 -89 11
-130 16 -104 13 -587 20 -690 9z m625 -125 c243 -24 483 -62 651 -105 359 -92
396 -134 189 -215 -104 -41 -484 -139 -605 -156 -118 -17 -333 -15 -391 4 -79
24 -164 90 -202 155 -18 31 -47 67 -65 78 -38 26 -102 37 -137 24 -68 -26
-143 -4 -216 65 -26 24 -60 47 -76 51 -33 8 -63 32 -63 50 0 52 561 83 915 49z
m-7195 -80 c282 -48 532 -151 766 -317 239 -168 521 -490 743 -846 130 -208
298 -569 377 -811 92 -281 142 -642 123 -896 -24 -321 -125 -631 -276 -844
-97 -136 -314 -338 -548 -510 -33 -25 -76 -56 -95 -71 -47 -36 -220 -140 -300
-180 -180 -91 -359 -130 -501 -110 -238 34 -405 229 -484 567 -27 112 -30 150
-29 318 1 134 5 180 28 285 53 244 94 365 206 615 40 88 112 248 160 355 48
107 128 274 177 370 93 181 154 345 192 515 11 49 18 91 16 93 -1 2 -45 -52
-97 -120 -357 -465 -708 -1156 -851 -1673 -21 -76 -22 -99 -22 -445 0 -253 -4
-373 -12 -391 -17 -39 -81 -87 -138 -103 -89 -25 -175 -28 -380 -11 -330 28
-1126 17 -1505 -20 -359 -35 -458 -40 -910 -40 -494 0 -603 7 -845 51 -147 26
-223 51 -380 121 -194 88 -335 182 -462 310 -129 130 -235 307 -293 488 l-32
100 5 170 c8 253 42 390 152 620 182 380 561 746 973 943 247 117 483 186 912
266 102 19 272 50 379 70 286 54 514 107 576 136 11 5 54 21 95 36 261 92 468
227 761 494 79 73 177 159 217 191 193 155 425 246 720 283 147 19 447 14 582
-9z m6015 -379 c104 -27 269 -103 422 -195 122 -72 336 -238 431 -331 247
-245 375 -477 451 -818 21 -98 49 -204 60 -237 38 -107 116 -215 156 -215 54
0 52 177 -5 419 -42 179 -54 291 -40 377 14 87 35 130 83 168 34 27 47 31 100
31 140 -1 254 -103 550 -494 66 -86 134 -172 151 -191 18 -19 51 -64 73 -100
134 -216 151 -302 113 -570 -7 -52 -10 -111 -6 -131 18 -100 106 -154 311
-194 72 -14 153 -37 182 -51 49 -23 103 -74 103 -95 0 -17 -49 -29 -118 -29
-79 0 -140 -24 -161 -63 -12 -23 -12 -29 2 -51 33 -50 123 -47 264 7 49 19
111 40 140 47 48 12 54 12 73 -5 36 -33 52 -109 57 -275 8 -252 -2 -264 -213
-285 -231 -24 -304 -45 -304 -90 0 -32 20 -35 230 -45 118 -6 216 -13 218 -15
9 -9 -60 -111 -109 -163 -62 -66 -125 -96 -249 -118 -126 -22 -384 -14 -515
16 -146 33 -194 62 -347 212 -157 155 -242 270 -371 503 -49 88 -96 167 -103
175 -38 40 -144 -78 -177 -197 -26 -92 -28 -108 -37 -293 -5 -96 -14 -193 -20
-215 -26 -89 -82 -156 -185 -220 -131 -82 -211 -104 -379 -105 -173 0 -350 30
-531 91 -182 62 -207 95 -140 185 89 119 116 276 79 469 -8 44 -21 125 -29
180 -8 55 -31 154 -51 220 -19 66 -45 152 -56 190 -24 80 -69 175 -106 223
-56 73 -372 295 -479 336 -84 32 -108 55 -124 120 -8 31 -34 78 -75 132 -34
47 -65 97 -68 112 -3 15 -15 88 -26 162 -20 137 -36 200 -49 200 -7 0 -57
-256 -68 -346 -5 -44 -1 -62 31 -131 34 -77 46 -143 28 -169 -12 -19 -88 -53
-153 -70 -56 -14 -68 -14 -147 1 -106 21 -158 15 -272 -31 -118 -49 -166 -86
-230 -179 -45 -65 -75 -133 -115 -255 -21 -63 -53 -144 -71 -179 -19 -35 -34
-77 -34 -92 0 -16 20 -68 45 -116 57 -110 65 -151 35 -178 -20 -18 -39 -19
-288 -20 -147 -1 -361 -5 -477 -9 -187 -8 -232 -6 -403 14 -114 13 -212 19
-238 15 -79 -11 -130 -76 -112 -142 13 -48 57 -79 131 -92 168 -29 790 -21
1117 14 184 20 257 19 353 -6 143 -37 302 -14 329 47 15 33 -8 64 -75 102 -64
36 -80 69 -81 166 -1 88 12 92 126 33 51 -26 101 -47 110 -47 30 0 66 22 77
47 30 66 -4 135 -101 202 -150 103 -179 127 -198 163 -36 68 -20 147 53 261
44 68 89 100 131 92 27 -5 104 -56 155 -103 45 -42 164 -93 229 -99 56 -5 62
-4 87 21 36 36 30 85 -19 153 -20 28 -36 55 -36 61 0 7 11 19 25 28 73 48 391
-57 572 -188 122 -89 191 -154 217 -207 48 -96 113 -339 146 -546 14 -88 12
-270 -5 -348 -26 -123 -88 -211 -267 -376 -81 -75 -126 -108 -190 -139 -143
-70 -290 -101 -478 -101 -614 0 -1036 7 -1115 19 -118 17 -538 27 -689 17 -65
-4 -290 -4 -500 2 -364 10 -388 11 -531 41 -82 16 -188 34 -234 40 -75 8 -88
13 -117 41 -27 26 -35 44 -44 100 -20 115 4 183 125 369 120 184 143 238 190
426 47 189 77 255 140 316 49 47 89 68 185 97 141 43 243 104 511 307 294 221
405 287 484 287 22 0 73 -8 113 -18 145 -35 237 -4 350 120 60 65 177 240 242
360 23 44 74 133 112 198 142 241 188 372 188 532 0 70 -5 101 -19 131 -77
159 -40 239 156 331 69 33 115 48 169 54 114 15 253 54 413 118 125 50 238 85
341 105 14 2 90 3 170 1 115 -3 166 -9 245 -29z m-1915 -490 c0 -3 -12 -38
-26 -78 -32 -87 -85 -197 -126 -256 -41 -60 -75 -146 -83 -214 -4 -32 -12 -58
-18 -58 -17 0 0 160 24 225 24 64 171 338 197 368 14 16 32 23 32 13z m-454
-1033 c-9 -26 -16 -57 -16 -71 0 -25 -45 -148 -63 -170 -16 -20 -37 5 -37 45
0 23 20 72 62 150 62 115 84 133 54 46z m-9271 -1497 c21 -73 23 -135 5 -146
-8 -6 -52 -10 -97 -10 l-83 0 -146 -76 -147 -75 6 78 c11 139 46 201 136 244
72 34 89 37 203 38 l107 1 16 -54z"/>
<path d="M7467 3438 c-19 -24 -40 -54 -47 -66 -20 -40 -81 -102 -100 -102 -14
0 -20 11 -25 51 -10 74 -47 105 -95 79 -48 -26 -209 -318 -372 -675 -33 -71
-81 -171 -108 -221 -77 -144 -113 -246 -166 -472 -33 -145 -48 -227 -79 -443
-27 -189 -43 -248 -121 -447 -130 -330 -111 -497 75 -682 161 -159 354 -165
631 -18 115 60 403 250 560 368 409 308 545 622 576 1325 13 322 -18 499 -137
761 -10 23 -39 95 -64 160 -25 65 -65 154 -88 197 -43 82 -113 157 -145 157
-34 0 -68 -43 -92 -115 -18 -56 -39 -85 -61 -85 -29 0 -34 25 -21 124 14 113
5 139 -49 144 -33 3 -41 -2 -72 -40z m28 -642 c29 -21 25 -111 -6 -170 -56
-106 -212 -316 -236 -316 -21 0 -11 65 21 128 13 26 40 98 60 160 43 130 68
177 105 197 33 18 33 18 56 1z"/>
<path d="M4112 3294 c-32 -22 -30 -89 5 -162 34 -72 147 -186 305 -307 164
-127 220 -159 277 -159 40 -1 46 2 49 21 7 50 -59 133 -178 221 -30 22 -125
114 -210 203 -133 139 -199 199 -220 199 -3 0 -16 -7 -28 -16z"/>
<path d="M1137 4739 c-12 -7 -15 -17 -11 -37 19 -81 97 -160 277 -277 42 -28
76 -55 76 -61 1 -7 -11 -15 -26 -19 -97 -24 -511 -261 -491 -281 3 -2 70 2
149 10 171 18 553 13 692 -10 48 -8 104 -14 124 -14 l37 0 -35 36 c-44 45
-141 109 -251 164 -49 24 -88 47 -88 51 0 4 9 11 21 14 73 23 369 259 369 294
0 7 -32 11 -101 11 -163 0 -387 39 -604 105 -89 27 -111 30 -138 14z"/>
</g>
</svg>
